<svg width="24" height="24" viewBox="0 0 24 24" fill="none" xmlns="http://www.w3.org/2000/svg">
<rect width="24" height="24" rx="3" fill="#ACF562"/>
<path d="M2.8335 3.75H8.3335C9.30596 3.75 10.2386 4.13631 10.9262 4.82394C11.6139 5.51158 12.0002 6.44421 12.0002 7.41667V20.25C12.0002 19.5207 11.7104 18.8212 11.1947 18.3055C10.679 17.7897 9.97951 17.5 9.25016 17.5H2.8335V3.75Z" stroke="white" stroke-width="2" stroke-linecap="round" stroke-linejoin="round"/>
<path d="M21.1667 3.75H15.6667C14.6942 3.75 13.7616 4.13631 13.0739 4.82394C12.3863 5.51158 12 6.44421 12 7.41667V20.25C12 19.5207 12.2897 18.8212 12.8055 18.3055C13.3212 17.7897 14.0207 17.5 14.75 17.5H21.1667V3.75Z" stroke="white" stroke-width="2" stroke-linecap="round" stroke-linejoin="round"/>
<path d="M5.60938 7.6665L7.69141 13.9634H7.77344L9.42485 7.6665H10.8813L8.625 15.6665H6.83594L4.01953 7.6665H5.60938Z" fill="white"/>
<path d="M20.2497 10.2251H18.7887C18.7471 9.98551 18.6702 9.77327 18.5583 9.58838C18.4463 9.40088 18.307 9.24202 18.1403 9.11182C17.9736 8.98161 17.7835 8.88395 17.57 8.81885C17.359 8.75114 17.1312 8.71729 16.8864 8.71729C16.4515 8.71729 16.0661 8.82666 15.7301 9.04541C15.3942 9.26156 15.1312 9.57926 14.9411 9.99854C14.751 10.4152 14.6559 10.9243 14.6559 11.5259C14.6559 12.1379 14.751 12.6535 14.9411 13.0728C15.1338 13.4894 15.3968 13.8045 15.7301 14.0181C16.0661 14.229 16.4502 14.3345 16.8825 14.3345C17.1221 14.3345 17.346 14.3032 17.5544 14.2407C17.7653 14.1756 17.9541 14.0806 18.1208 13.9556C18.29 13.8306 18.432 13.6769 18.5465 13.4946C18.6637 13.3123 18.7445 13.104 18.7887 12.8696L20.2497 12.8774C20.195 13.2577 20.0765 13.6144 19.8942 13.9478C19.7145 14.2811 19.4788 14.5754 19.1872 14.8306C18.8955 15.0832 18.5544 15.2811 18.1637 15.4243C17.7731 15.5649 17.3395 15.6353 16.863 15.6353C16.1598 15.6353 15.5322 15.4725 14.9801 15.147C14.4281 14.8215 13.9932 14.3514 13.6755 13.7368C13.3577 13.1222 13.199 12.4009 13.199 11.5415C13.199 10.6795 13.359 9.92692 13.6794 9.31494C13.9997 8.70036 14.4359 8.23031 14.988 7.90478C15.54 7.57926 16.165 7.4165 16.863 7.4165C17.3083 7.4165 17.7223 7.479 18.1051 7.604C18.488 7.729 18.8291 7.9126 19.1286 8.15479C19.4281 8.39437 19.6742 8.68864 19.8669 9.0376C20.0622 9.38395 20.1898 9.77979 20.2497 10.2251Z" fill="white"/>
</svg>
