<svg width="24" height="24" viewBox="0 0 24 24" fill="none" xmlns="http://www.w3.org/2000/svg">
<g clip-path="url(#clip0_294_1316)">
<path d="M2 3H8C9.06087 3 10.0783 3.42143 10.8284 4.17157C11.5786 4.92172 12 5.93913 12 7V21C12 20.2044 11.6839 19.4413 11.1213 18.8787C10.5587 18.3161 9.79565 18 9 18H2V3Z" stroke="#ACF562" stroke-width="2" stroke-linecap="round" stroke-linejoin="round"/>
<path d="M22 3H16C14.9391 3 13.9217 3.42143 13.1716 4.17157C12.4214 4.92172 12 5.93913 12 7V21C12 20.2044 12.3161 19.4413 12.8787 18.8787C13.4413 18.3161 14.2044 18 15 18H22V3Z" stroke="#ACF562" stroke-width="2" stroke-linecap="round" stroke-linejoin="round"/>
<path d="M5.02832 7.27295L7.29963 14.1423H7.38912L9.19065 7.27295H10.7796L8.31809 16.0002H6.36639L3.29395 7.27295H5.02832Z" fill="#ACF562"/>
<path d="M21 10.0639H19.4062C19.3608 9.80256 19.277 9.57102 19.1548 9.36932C19.0327 9.16477 18.8807 8.99148 18.6989 8.84943C18.517 8.70739 18.3097 8.60085 18.0767 8.52983C17.8466 8.45597 17.598 8.41903 17.331 8.41903C16.8565 8.41903 16.4361 8.53835 16.0696 8.77699C15.7031 9.01278 15.4162 9.35938 15.2088 9.81676C15.0014 10.2713 14.8977 10.8267 14.8977 11.483C14.8977 12.1506 15.0014 12.7131 15.2088 13.1705C15.419 13.625 15.706 13.9688 16.0696 14.2017C16.4361 14.4318 16.8551 14.5469 17.3267 14.5469C17.5881 14.5469 17.8324 14.5128 18.0597 14.4446C18.2898 14.3736 18.4957 14.2699 18.6776 14.1335C18.8622 13.9972 19.017 13.8295 19.142 13.6307C19.2699 13.4318 19.358 13.2045 19.4062 12.9489L21 12.9574C20.9403 13.3722 20.8111 13.7614 20.6122 14.125C20.4162 14.4886 20.1591 14.8097 19.8409 15.0881C19.5227 15.3636 19.1506 15.5795 18.7244 15.7358C18.2983 15.8892 17.8253 15.9659 17.3054 15.9659C16.5384 15.9659 15.8537 15.7884 15.2514 15.4332C14.6491 15.0781 14.1747 14.5653 13.8281 13.8949C13.4815 13.2244 13.3084 12.4375 13.3084 11.5C13.3084 10.5597 13.483 9.73864 13.8324 9.07102C14.1818 8.40057 14.6577 7.88778 15.2599 7.53267C15.8622 7.17756 16.544 7 17.3054 7C17.7912 7 18.2429 7.06818 18.6605 7.20455C19.0781 7.34091 19.4503 7.54119 19.777 7.8054C20.1037 8.06676 20.3722 8.38778 20.5824 8.76847C20.7955 9.14631 20.9347 9.57813 21 10.0639Z" fill="#ACF562"/>
</g>
<defs>
<clipPath id="clip0_294_1316">
<rect width="24" height="24" rx="3" fill="white"/>
</clipPath>
</defs>
</svg>
